<svg width="54" height="65" viewBox="0 0 54 65" fill="none" xmlns="http://www.w3.org/2000/svg">
<path d="M36.8267 0.920044C32.5642 1.31092 26.9377 2.81594 20.0295 5.49095C17.9571 6.99324 15.7899 8.36017 13.5414 9.58322L13.568 10.0034C13.7382 10.0034 13.9296 9.88901 14.2061 9.74808C14.488 9.72149 14.6555 9.83317 14.6555 10.1124L15.1022 9.86242L15.3256 9.83317L15.3522 10.0299C15.3788 10.2241 13.8472 11.4206 10.8132 13.5665L11.0605 13.9547L10.8371 13.9866L10.3665 13.8164C10.3665 13.9547 10.1724 14.0424 9.72831 14.069L9.7549 14.2924L10.2575 14.8508C10.0271 14.8474 9.79958 14.7995 9.58738 14.7099C8.61151 14.7923 7.63564 15.5156 6.68902 16.8531L6.93897 17.2439C7.77391 16.4914 8.24722 16.1005 8.38549 16.1005L8.44399 16.7121C8.30572 16.7121 8.08236 16.8238 7.80582 16.9621L8.33497 17.7465C9.30546 16.6785 10.4196 15.7505 11.6455 14.9891C12.2571 15.1566 12.5655 15.3214 12.5655 15.5448L13.0122 15.5182C16.2696 13.0958 19.5003 11.3648 22.7018 10.2799L22.7337 10.7C22.1487 11.5908 21.7312 12.0322 21.5079 12.0588C21.5345 12.3672 21.6462 12.6172 21.8137 12.8698C21.8695 13.4282 20.4203 17.0791 17.4661 23.8756C10.7255 39.6438 5.0989 51.2824 0.557251 58.858C0.557251 58.9963 0.666272 59.2197 0.807202 59.4696C1.92134 59.1931 2.6446 58.9458 2.95039 58.6666L3.20566 58.6347L3.23225 59.0548L3.65238 59.0256L4.09379 58.7756C4.09379 58.9139 4.26131 58.9697 4.5405 58.9405L4.57241 59.3633C4.599 59.7807 4.37298 60.4189 3.84383 61.2831C3.37052 61.8149 2.89987 62.8971 2.37072 64.5404L2.39731 64.7372L2.81744 64.7106C4.62559 62.6791 6.01894 60.6688 6.96556 58.7171C12.2863 57.1589 16.3254 55.6273 19.1387 54.1223C21.952 53.8723 24.1271 53.1517 25.5736 51.9259L25.5443 51.7025L24.4834 52.0083L24.2334 52.0349L24.2068 51.8116C26.2702 51.5031 27.7168 51.0325 28.4985 50.4182C32.5376 47.2992 35.5716 45.1001 37.6324 43.7919C44.0141 39.1119 47.0215 34.5995 46.6598 30.3105C46.6332 29.8638 45.2106 28.1088 42.4532 25.0456C42.3974 24.4606 43.3706 23.623 45.3197 22.5089L50.8664 17.6322C52.0896 16.0447 52.8448 13.484 53.0947 9.94751L53.0123 9.10991C52.7889 6.63168 51.002 4.6241 47.6038 3.08983C45.6015 1.72574 42.0065 1.00247 36.8267 0.920044ZM43.5408 3.67748C47.6623 3.845 49.7815 4.56826 49.8932 5.84992L49.7257 6.27005L43.5408 3.67748ZM39.6 7.17944C42.4266 7.1369 43.8997 7.88941 44.046 9.4742L44.4608 9.44229L44.3784 8.38399L44.8251 8.3574C45.91 8.94239 46.4923 9.66565 46.5481 10.5272C46.604 11.1122 46.2982 11.8408 45.6042 12.7049C45.325 12.7315 45.1575 12.5348 45.1309 12.1173L44.6842 12.1492L44.5751 13.399C42.7085 16.1856 41.371 17.6056 40.5334 17.6907C39.7809 18.7197 39.3049 19.2515 39.1108 19.2781C38.5258 19.9748 36.941 21.1714 34.3245 22.8412C33.4603 22.9263 30.2535 24.1521 24.7094 26.5745C24.4329 26.4436 24.1244 26.3955 23.8213 26.4363L23.7894 26.0454C23.7362 25.237 24.0739 24.2346 24.8796 23.0088C25.2997 20.722 25.7703 19.4137 26.2995 19.1079L30.9209 8.72169C30.8677 8.08086 31.8436 7.5783 33.8751 7.24592L34.5452 7.18742L34.5984 7.77507C35.8314 7.58054 37.0671 7.40325 38.3051 7.24326C38.7651 7.20603 39.1959 7.18476 39.6 7.17944ZM49.2231 8.21647H49.2949C49.6645 8.24838 50.0607 8.9158 50.4809 10.1948L50.5075 10.5857C50.2814 10.6123 49.8693 9.94219 49.2551 8.60735L49.2231 8.21647ZM23.0688 14.8189H23.2602L23.3187 15.4305C23.1219 15.4571 22.848 15.7389 22.513 16.3239L22.4811 15.9091C22.872 15.4358 23.0661 15.0688 23.0661 14.8189H23.0688ZM9.81074 15.1566L9.83733 15.348C9.6964 15.348 9.4757 15.4624 9.19916 15.6006L8.97314 15.6272L8.94655 15.239L9.81074 15.1566ZM21.2048 19.1611L21.2872 19.9987L21.0638 20.0253L20.9814 19.193L21.2048 19.1611ZM20.6729 20.6688C20.6198 21.3655 20.4496 21.7244 20.088 21.7537L19.8646 21.7803C20.1145 21.307 20.2555 20.9746 20.2289 20.7246L20.6729 20.6688ZM19.7556 22.8386L19.7822 23.0353L19.3913 23.7001L18.9712 23.732L18.9446 23.5352C19.362 23.5087 19.5588 23.288 19.5296 22.8705L19.7556 22.8386ZM18.8036 24.793L18.6973 25.8194L18.4713 25.846L18.3915 24.8169L18.8036 24.793ZM41.3976 25.5375L42.3149 26.1012C42.3415 26.3778 42.2033 26.5453 41.9267 26.5719C41.5358 26.3219 41.23 26.2102 41.0067 26.2102L40.9508 25.5987L41.3976 25.5375ZM23.7069 27.9067L23.7388 28.2976L22.872 28.3853L22.8454 27.9918L23.7069 27.9067ZM37.9674 29.3559C38.579 29.6351 38.8901 29.9143 38.9193 30.135L38.9459 30.3344C38.3609 30.3876 37.8291 30.0818 37.3292 29.4144L37.9674 29.3559ZM44.8809 30.026C45.3542 30.2227 45.5749 30.4195 45.6042 30.6136L45.7425 32.2543C45.5483 32.701 45.3542 32.9243 45.1309 32.9243L44.8809 30.026ZM33.7262 30.1988C35.9598 30.1616 37.6669 30.6881 38.8369 31.8075L38.9167 32.6451C37.9169 35.5435 36.8027 37.216 35.6062 37.7452L30.0328 42.1752C25.8847 44.9034 23.6511 46.2648 23.3187 46.2914C16.7163 49.9422 12.5974 51.8089 11.0073 51.9472L10.7547 51.9738C10.9781 51.1947 13.9057 45.1799 19.5881 33.871C22.0955 33.6476 26.0495 32.475 31.4261 30.361L32.7344 30.2493C33.0747 30.2227 33.4071 30.2068 33.7262 30.1988ZM25.6028 31.5018L25.6294 31.6985L24.7413 31.781L24.7094 31.5842L25.6028 31.5018ZM11.7066 44.9831C11.4274 46.4057 11.119 47.1316 10.8132 47.1609L10.7866 46.9615C10.7308 46.2382 11.0366 45.5974 11.7066 44.9831ZM30.5885 45.8766L30.6151 46.2674C30.6417 46.435 30.0035 46.9615 28.7511 47.8815C25.0444 49.6923 22.8746 50.9447 22.2311 51.5855C18.2213 52.9762 16.243 53.8431 16.2696 54.1754C12.7064 55.598 10.3665 56.6297 9.255 57.2706C9.00239 57.2972 8.61417 57.1881 8.11161 56.9648C8.05577 56.2415 8.3589 55.6512 9.08216 55.1779C9.69374 55.1247 10.3133 55.2072 10.869 55.4598C11.5365 55.1247 12.6772 54.7312 14.3231 54.343L14.2912 53.9282L12.983 54.0345C13.1505 53.8138 14.4056 53.2288 16.8014 52.253L17.4688 52.1998L17.4954 52.3939C16.3812 52.479 15.7404 52.838 15.5995 53.4229C15.6261 53.6729 15.7697 53.8138 16.0462 53.7872C16.8546 53.2288 17.272 52.9257 17.272 52.8406C18.8887 52.5348 23.3187 50.1949 30.5885 45.8766ZM10.4223 47.799L10.4489 47.9905C10.4755 48.2697 10.3372 48.4425 10.058 48.4691L10.0314 48.2724C10.0048 48.0198 10.1431 47.8549 10.4223 47.799ZM20.4469 50.2906C20.6836 50.2853 20.8165 50.4209 20.8405 50.6389C20.3113 50.6948 19.3354 51.1122 17.8597 51.9472L17.6363 51.9738L17.6097 51.5589C18.6416 51.4909 19.6125 51.0462 20.3379 50.3092C20.3751 50.3012 20.4124 50.2932 20.4443 50.2906H20.4469ZM10.7042 53.5958L10.7308 53.8138C10.5606 53.8138 10.3638 53.9282 10.0846 54.0664L9.66981 54.093C9.64322 53.8989 9.7549 53.7314 10.0341 53.6463L10.7042 53.5958ZM5.60412 56.1299L6.07478 56.3213C5.90726 57.5737 5.54828 58.2172 4.90479 58.273C4.48003 58.0691 4.01145 57.9732 3.5407 57.9938L3.48486 57.3823C3.45827 57.1297 3.5992 56.9914 3.90499 56.909C4.18419 56.8824 4.34905 57.0712 4.3783 57.4886C5.12815 56.5713 5.55094 56.1299 5.60412 56.1299Z" fill="#7937D5"/>
</svg>
