<svg width="45" height="65" viewBox="0 0 45 65" fill="none" xmlns="http://www.w3.org/2000/svg">
<path d="M32.5855 24.4581H20.3858V0.577148H32.5855C39.1693 0.577148 44.5247 5.93247 44.5247 12.5163C44.5247 19.1001 39.1693 24.4581 32.5855 24.4581ZM24.2973 20.5466H32.5855C37.0128 20.5466 40.6132 16.9436 40.6132 12.5189C40.6132 8.09428 37.0102 4.49127 32.5855 4.49127H24.2973V20.5466ZM24.2973 24.4581H12.1002C5.51643 24.4581 0.161106 19.1027 0.161106 12.5189C0.161106 5.93513 5.51643 0.577148 12.1002 0.577148H24.2999V24.4581H24.2973ZM12.1002 4.48861C7.67291 4.48861 4.07257 8.09162 4.07257 12.5163C4.07257 16.9409 7.67291 20.5466 12.1002 20.5466H20.3885V4.48861H12.1002ZM24.2973 44.4248H12.1002C5.51643 44.4248 0.161106 39.0695 0.161106 32.4857C0.161106 25.9019 5.51643 20.5466 12.1002 20.5466H24.2999V44.4248H24.2973ZM12.1002 24.4581C7.67291 24.4581 4.07257 28.0611 4.07257 32.4857C4.07257 36.9104 7.67557 40.5134 12.1002 40.5134H20.3885V24.4581H12.1002ZM12.164 64.3943C5.54568 64.3943 0.158447 59.039 0.158447 52.4552C0.158447 45.8714 5.51377 40.516 12.0976 40.516H24.2973V52.3249C24.2973 58.9805 18.8542 64.3943 12.164 64.3943ZM12.1002 44.4248C9.97202 44.4277 7.93179 45.2743 6.42692 46.7792C4.92205 48.2841 4.07538 50.3243 4.07257 52.4525C4.07257 56.8798 7.70217 60.4802 12.1667 60.4802C16.7004 60.4802 20.3911 56.8213 20.3911 52.3222V44.4248H12.1002ZM32.5855 44.4248H32.3249C25.7411 44.4248 20.3858 39.0695 20.3858 32.4857C20.3858 25.9019 25.7411 20.5466 32.3249 20.5466H32.5855C39.1693 20.5466 44.5247 25.9019 44.5247 32.4857C44.5247 39.0695 39.1693 44.4248 32.5855 44.4248ZM32.3276 24.4581C27.9003 24.4581 24.2999 28.0611 24.2999 32.4857C24.2999 36.9104 27.9029 40.5134 32.3276 40.5134H32.5882C37.0155 40.5134 40.6159 36.9104 40.6159 32.4857C40.6159 28.0611 37.0102 24.4581 32.5855 24.4581H32.3276Z" fill="#7937D5"/>
</svg>
