<svg width="64" height="65" viewBox="0 0 64 65" fill="none" xmlns="http://www.w3.org/2000/svg">
<path d="M62.7014 29.6404L34.8372 1.77885C33.2311 0.175443 30.6306 0.175443 29.0192 1.77885L23.2464 7.56228L30.5854 14.9012C32.3005 14.3296 34.2522 14.7151 35.6083 16.0739C36.9804 17.4433 37.358 19.419 36.773 21.1261L43.8407 28.1991C45.5558 27.6062 47.5288 27.9917 48.8929 29.3558C50.8101 31.2703 50.8101 34.3655 48.8929 36.28C46.9811 38.1918 43.8913 38.1918 41.9794 36.28C40.5462 34.8414 40.1872 32.7248 40.9052 30.9725L34.2868 24.3887V41.739C34.7548 41.9677 35.1962 42.2788 35.5844 42.6644C37.4803 44.5815 37.4803 47.6713 35.5844 49.5779C33.6725 51.4951 30.5615 51.4951 28.6469 49.5779C26.7351 47.666 26.7351 44.5815 28.6469 42.6697C29.1309 42.1911 29.676 41.8294 30.2557 41.5901V24.0696C29.6787 23.8277 29.1282 23.4793 28.6602 23.0034C27.2111 21.5542 26.8627 19.4349 27.6073 17.6613L20.3959 10.4154L1.288 29.5101C-0.307426 31.1188 -0.307426 33.722 1.288 35.3307L29.1548 63.1896C30.7609 64.7956 33.3614 64.7956 34.9675 63.1896L62.7014 35.4557C64.3101 33.8523 64.3101 31.2491 62.7014 29.6404Z" fill="#7937D5"/>
</svg>
