<svg width="65" height="63" viewBox="0 0 65 63" fill="none" xmlns="http://www.w3.org/2000/svg">
<path d="M32.657 0.366821C15.0275 0.366821 0.748413 14.6539 0.748413 32.2754C0.748413 46.3763 9.89022 58.3341 22.5659 62.5486C24.1613 62.8491 24.7463 61.8626 24.7463 61.0144C24.7463 60.2566 24.7197 58.249 24.7064 55.5899C15.8305 57.5151 13.9586 51.3089 13.9586 51.3089C12.5067 47.6261 10.4087 46.6422 10.4087 46.6422C7.51835 44.6639 10.6321 44.7038 10.6321 44.7038C13.8362 44.9271 15.5194 47.9904 15.5194 47.9904C18.3646 52.8697 22.9887 51.4604 24.8128 50.6441C25.1 48.5807 25.9216 47.174 26.8337 46.3763C19.7473 45.5786 12.2993 42.8345 12.2993 30.6082C12.2993 27.1248 13.5358 24.2796 15.5832 22.046C15.2243 21.2403 14.1474 17.9963 15.8624 13.6009C15.8624 13.6009 18.5348 12.7447 24.6373 16.8715C27.19 16.1616 29.9022 15.8106 32.6144 15.7946C35.3267 15.8106 38.0389 16.1616 40.5916 16.8715C46.6542 12.7447 49.3265 13.6009 49.3265 13.6009C51.0416 17.9963 49.9647 21.2403 49.6456 22.046C51.6798 24.2796 52.9163 27.1248 52.9163 30.6082C52.9163 42.8664 45.4576 45.5653 38.358 46.3497C39.4748 47.307 40.5118 49.264 40.5118 52.2528C40.5118 56.5233 40.4719 59.9534 40.4719 60.9905C40.4719 61.8281 41.0303 62.8252 42.6656 62.5061C55.4317 58.3208 64.5656 46.3551 64.5656 32.2754C64.5656 14.6539 50.2785 0.366821 32.657 0.366821Z" fill="#7937D5"/>
</svg>
