<svg width="65" height="65" viewBox="0 0 65 65" fill="none" xmlns="http://www.w3.org/2000/svg">
<path d="M0.291443 0.920044H64.1086V64.7372H0.291443V0.920044ZM58.8809 49.5168C58.4156 46.6051 56.5197 44.1588 50.8958 41.8774C48.9387 40.96 46.7636 40.3218 46.1175 38.846C45.8755 37.9686 45.8383 37.4899 45.9952 36.9714C46.394 35.2537 48.4282 34.7378 50.0236 35.2164C51.0606 35.5355 52.0179 36.3332 52.6188 37.6096C55.3683 35.8121 55.3683 35.8121 57.2855 34.6182C56.5675 33.5014 56.2112 33.0201 55.7273 32.5441C54.0521 30.6695 51.8211 29.7122 48.1915 29.7946L46.3169 30.0313C44.5194 30.47 42.807 31.4273 41.7699 32.7036C38.7386 36.1365 39.6134 42.1193 43.2829 44.5922C46.9125 47.3045 52.22 47.9001 52.898 50.4554C53.5362 53.5665 50.5847 54.5637 47.6704 54.2047C45.5139 53.7261 44.32 52.6465 43.0037 50.6522L38.1377 53.4469C38.6961 54.7232 39.3342 55.279 40.2915 56.3958C44.9182 61.065 56.4851 60.8257 58.5618 53.7261C58.6389 53.4868 59.2 51.8514 58.7586 49.3386L58.8809 49.5168ZM34.9947 30.252H29.0171C29.0171 35.4052 28.9932 40.5266 28.9932 45.6878C28.9932 48.9637 29.1607 51.9711 28.6263 52.8965C27.7488 54.7285 25.4886 54.4945 24.4622 54.1728C23.4092 53.6516 22.8747 52.9337 22.2552 51.8993C22.0877 51.6201 21.9627 51.3781 21.9175 51.3781L17.0647 54.3696C17.8757 56.0448 19.059 57.486 20.5853 58.4033C22.8588 59.7594 25.914 60.1982 29.1129 59.4803C31.1949 58.8793 32.9897 57.6428 33.9284 55.7283C35.2845 53.2554 34.9973 50.2241 34.984 46.8312C35.0159 41.3695 34.984 35.9051 34.984 30.4009L34.9947 30.252Z" fill="#7937D5"/>
</svg>
