<svg width="58" height="65" viewBox="0 0 58 65" fill="none" xmlns="http://www.w3.org/2000/svg">
<path d="M29.1374 64.7371C28.2838 64.7371 27.4329 64.5138 26.6857 64.0803L18.8788 59.4616C17.7141 58.8101 18.2831 58.5788 18.666 58.4431C20.2216 57.9034 20.5353 57.7784 22.1972 56.8371C22.3701 56.7387 22.5988 56.7759 22.7769 56.8823L28.7757 60.4428C28.9938 60.5624 29.2996 60.5624 29.499 60.4428L52.8853 46.9454C53.1034 46.8205 53.2416 46.5705 53.2416 46.3126V19.3232C53.2416 19.06 53.1007 18.8127 52.8773 18.6798L29.5016 5.19307C29.2863 5.06809 28.9991 5.06809 28.781 5.19307L5.41068 18.6824C5.18466 18.8127 5.04107 19.068 5.04107 19.3232V46.3126C5.04107 46.5705 5.18466 46.8151 5.41068 46.9375L11.8163 50.6388C15.2917 52.3779 17.4216 50.3304 17.4216 48.2723V21.626C17.4216 21.2484 17.7247 20.9532 18.1023 20.9532H21.0672C21.4368 20.9532 21.7452 21.2511 21.7452 21.626V48.2723C21.7452 52.9123 19.2191 55.5714 14.821 55.5714C13.4702 55.5714 12.404 55.5714 9.43382 54.1062L3.29673 50.5777C1.78108 49.7029 0.845093 48.0649 0.845093 46.3126V19.3232C0.845093 17.5709 1.78374 15.933 3.29673 15.0608L26.6831 1.54751C28.1641 0.709912 30.1292 0.709912 31.597 1.54751L54.9806 15.0608C56.4963 15.9356 57.4376 17.5709 57.4376 19.3232V46.3126C57.4376 48.0649 56.4963 49.6975 54.9806 50.5777L31.597 64.0803C30.8524 64.5138 30.0042 64.7371 29.1374 64.7371ZM48.0193 38.128C48.0193 33.0758 44.605 31.7304 37.4176 30.7811C30.1558 29.8212 29.4166 29.3239 29.4166 27.6248C29.4166 26.2208 30.0414 24.3462 35.4207 24.3462C40.2256 24.3462 41.9965 25.3806 42.7251 28.6193C42.7889 28.9251 43.0681 29.1484 43.3819 29.1484H46.4159C46.6046 29.1484 46.7828 29.066 46.9104 28.933C47.0381 28.7895 47.1072 28.606 47.0886 28.4119C46.6179 22.8332 42.9112 20.2326 35.4207 20.2326C28.7518 20.2326 24.7739 23.0459 24.7739 27.7657C24.7739 32.8844 28.7305 34.299 35.1309 34.9319C42.7889 35.6817 43.3819 36.8012 43.3819 38.3062C43.3819 40.92 41.2839 42.0342 36.3567 42.0342C30.1691 42.0342 28.8076 40.4813 28.3503 37.4021C28.2971 37.0724 28.0152 36.8304 27.6775 36.8304H24.6542C24.2793 36.8304 23.9788 37.1282 23.9788 37.5032C23.9788 41.4439 26.122 46.1397 36.3567 46.1397C43.7701 46.1424 48.0193 43.2254 48.0193 38.128Z" fill="#7937D5"/>
</svg>
