<svg width="65" height="58" viewBox="0 0 65 58" fill="none" xmlns="http://www.w3.org/2000/svg">
<path d="M38.7296 28.8393C38.7296 30.4157 38.1036 31.9276 36.9891 33.0425C35.8747 34.1575 34.3631 34.7842 32.7866 34.7849C31.2098 34.7849 29.6975 34.1585 28.5824 33.0435C27.4674 31.9285 26.841 30.4162 26.841 28.8393C26.841 27.2629 27.4671 25.751 28.5815 24.636C29.6959 23.5211 31.2076 22.8944 32.784 22.8937C34.3609 22.8937 35.8731 23.5201 36.9882 24.6351C38.1032 25.7501 38.7296 27.2624 38.7296 28.8393ZM45.7708 0.414062C42.1917 0.414062 37.5091 2.96675 32.7733 7.38609C28.0402 2.99068 23.355 0.467243 19.7786 0.467243C18.6884 0.467243 17.6965 0.714535 16.8377 1.20646C13.1815 3.31508 12.3625 9.88559 14.2504 18.1313C6.15627 20.6308 0.891357 24.6273 0.891357 28.8393C0.891357 33.0672 6.18286 37.0744 14.3009 39.5552C12.429 47.8329 13.2639 54.414 16.9281 56.52C17.779 57.0172 18.7628 57.2512 19.8583 57.2512C23.4348 57.2512 28.12 54.6985 32.8558 50.2739C37.5889 54.6719 42.2741 57.1954 45.8505 57.1954C46.9407 57.1954 47.9326 56.9561 48.7914 56.4641C52.445 54.3582 53.2666 47.7877 51.3787 39.5393C59.4436 37.0611 64.7085 33.0565 64.7085 28.8393C64.7085 24.6114 59.417 20.6042 51.2989 18.118C53.1709 9.84836 52.336 3.2619 48.6718 1.15328C47.8262 0.664013 46.845 0.416722 45.7708 0.414062ZM45.7575 3.31242V3.32838C46.3558 3.32838 46.837 3.44538 47.2412 3.66608C49.0121 4.68183 49.7806 8.54543 49.1823 13.5152C49.0387 14.7384 48.8047 16.028 48.5176 17.3442C45.9649 16.7167 43.1835 16.2354 40.2559 15.9243C38.5009 13.5178 36.6795 11.3321 34.8447 9.4176C39.0779 5.48221 43.0532 3.32306 45.7601 3.31508L45.7575 3.31242ZM19.7786 3.36561C22.4695 3.36561 26.4634 5.51412 30.7073 9.42823C28.8832 11.3427 27.0644 13.5152 25.336 15.9216C22.3924 16.2327 19.6084 16.714 17.0584 17.3522C16.7606 16.0493 16.5399 14.7889 16.383 13.5763C15.7714 8.60925 16.5266 4.74831 18.2815 3.71926C18.7867 3.47994 19.3451 3.3789 19.7786 3.36561ZM32.76 11.4757C33.9699 12.7201 35.1798 14.1135 36.3763 15.6345C35.2064 15.5813 34.0098 15.544 32.7999 15.544C31.5768 15.544 30.3669 15.5706 29.1836 15.6345C30.3536 14.1135 31.5635 12.7228 32.76 11.4757ZM32.7999 18.4584C34.7676 18.4584 36.7273 18.5488 38.6552 18.7057C39.7347 20.2532 40.7877 21.9045 41.8008 23.6515C42.79 25.3533 43.6887 27.0816 44.5077 28.826C43.6887 30.5677 42.79 32.3093 41.8141 34.0111C40.8037 35.7661 39.7587 37.436 38.6764 38.9835C36.7406 39.1511 34.7783 39.2441 32.7999 39.2441C30.8322 39.2441 28.8725 39.1511 26.9447 38.9968C25.8651 37.4493 24.8121 35.7953 23.7991 34.051C22.8099 32.3492 21.9111 30.6208 21.0921 28.8765C21.8978 27.1295 22.8099 25.3852 23.7858 23.6807C24.7962 21.9258 25.8412 20.2612 26.9234 18.7136C28.8592 18.5434 30.8216 18.453 32.7999 18.453V18.4584ZM23.1343 19.1338C22.4961 20.1362 21.8579 21.1626 21.2623 22.2183C20.664 23.2553 20.1056 24.2976 19.5738 25.34C18.8692 23.5956 18.2709 21.8566 17.7763 20.1628C19.4781 19.764 21.273 19.4076 23.1343 19.1338ZM42.439 19.1338C44.287 19.4076 46.0686 19.7453 47.773 20.1628C47.2944 21.8433 46.6961 23.5717 46.0181 25.3027C45.4862 24.2657 44.9278 23.2207 44.3163 22.181C43.718 21.1387 43.0798 20.1229 42.4416 19.1338H42.439ZM50.5836 20.9286C51.8706 21.3275 53.0938 21.7715 54.2398 22.2528C58.8453 24.2205 61.8234 26.7945 61.8234 28.8366C61.8101 30.8788 58.832 33.4634 54.2265 35.4178C53.1097 35.8964 51.8866 36.3272 50.6235 36.7287C49.879 34.1813 48.9058 31.5276 47.6986 28.8047C48.8951 26.1005 49.8524 23.46 50.5836 20.9233V20.9286ZM14.9657 20.9393C15.7049 23.4919 16.6808 26.143 17.8906 28.8632C16.6941 31.5675 15.7315 34.2079 15.0029 36.7446C13.7159 36.3458 12.4928 35.8991 11.36 35.4151C6.75456 33.4554 3.77642 30.8788 3.77642 28.8366C3.77642 26.7945 6.75456 24.2046 11.36 22.2528C12.4768 21.7742 13.7 21.3434 14.9657 20.9393ZM46.0181 32.32C46.7227 34.067 47.321 35.8086 47.8156 37.4998C46.1138 37.9173 44.3163 38.2709 42.4549 38.5368C43.0931 37.5397 43.7313 36.5106 44.3296 35.4576C44.9278 34.4206 45.4836 33.3623 46.0181 32.32ZM19.5738 32.3732C20.1056 33.4155 20.664 34.4552 21.2756 35.4975C21.8872 36.5346 22.5121 37.5503 23.1502 38.5368C21.3022 38.2656 19.5206 37.9252 17.8162 37.5104C18.2948 35.8352 18.8958 34.1015 19.5712 32.3705L19.5738 32.3732ZM48.5415 40.3157C48.8393 41.6266 49.0733 42.8897 49.2169 44.0996C49.8285 49.0667 49.0733 52.9276 47.3183 53.9593C46.9274 54.1986 46.4196 54.2997 45.8213 54.2997C43.1303 54.2997 39.1364 52.1538 34.8926 48.237C36.7167 46.3225 38.5355 44.1527 40.2639 41.749C43.2074 41.4352 45.9915 40.9539 48.5415 40.3157ZM17.085 40.3423C19.6376 40.9645 22.419 41.4458 25.3466 41.7569C27.1016 44.1634 28.923 46.3491 30.7578 48.261C26.5166 52.2043 22.536 54.3635 19.8291 54.3635C19.2441 54.3502 18.7495 54.2305 18.3586 54.0125C16.5877 53.0021 15.8193 49.1358 16.4175 44.166C16.5611 42.9429 16.7978 41.6559 17.085 40.3423ZM29.2102 42.0441C30.3802 42.0973 31.5768 42.1345 32.7866 42.1345C34.0098 42.1345 35.2197 42.1079 36.4029 42.0441C35.233 43.5651 34.0231 44.9558 32.8265 46.2055C31.6167 44.9558 30.4068 43.5651 29.2102 42.0441Z" fill="#7937D5"/>
</svg>
