<svg width="65" height="65" viewBox="0 0 65 65" fill="none" xmlns="http://www.w3.org/2000/svg">
<path d="M3.25425 0.920044C1.59766 0.920044 0.262817 2.25489 0.262817 3.91147V61.7458C0.262817 63.4023 1.59766 64.7372 3.25425 64.7372H61.0885C62.7451 64.7372 64.08 63.4023 64.08 61.7458V3.91147C64.08 2.25489 62.7451 0.920044 61.0885 0.920044H3.25425ZM49.4233 26.8458C51.0506 26.8458 52.4918 26.9441 53.7496 27.1409C54.9358 27.3187 56.0999 27.6217 57.2223 28.045V34.5809C56.6835 34.2083 56.1111 33.887 55.5125 33.621C54.8952 33.3432 54.2579 33.1121 53.606 32.9297C52.3711 32.5856 51.0961 32.4067 49.8142 32.3979C49.0165 32.3979 48.2905 32.4723 47.6364 32.6265C47.0534 32.7512 46.4941 32.9685 45.9798 33.27C45.5278 33.5466 45.1821 33.8789 44.9348 34.2645C44.6861 34.6531 44.5567 35.1061 44.5625 35.5674C44.5625 36.0886 44.7035 36.5593 44.9774 36.9741C45.2539 37.3889 45.6474 37.7824 46.1553 38.1547C46.6632 38.527 47.2801 38.8886 48.006 39.2449C48.7319 39.6039 49.5536 39.9735 50.4683 40.3511C51.718 40.8749 52.8402 41.4333 53.8346 42.0209C54.8291 42.6113 55.6827 43.2787 56.3953 44.0232C57.1079 44.7651 57.6504 45.6133 58.028 46.5679C58.4056 47.5225 58.597 48.6313 58.597 49.8997C58.597 51.6467 58.2646 53.1171 57.6052 54.3031C56.9609 55.4727 56.0362 56.4641 54.9142 57.1881C53.7049 57.955 52.3644 58.4923 50.9602 58.7729C49.4552 59.092 47.8677 59.2516 46.2005 59.2516C44.5596 59.2588 42.9216 59.1128 41.3079 58.8155C39.9117 58.574 38.5576 58.1325 37.2874 57.5046V50.5113C39.6906 52.5564 42.7392 53.6866 45.8947 53.7021C46.7802 53.7021 47.554 53.6224 48.2134 53.4628C48.8755 53.3033 49.4259 53.0799 49.87 52.7981C50.3114 52.5109 50.6411 52.1758 50.8618 51.7876C51.1058 51.3356 51.2167 50.8238 51.1819 50.3113C51.1471 49.7989 50.9679 49.3068 50.6651 48.8919C50.27 48.3691 49.7868 47.9192 49.2372 47.5624C48.5555 47.1106 47.8378 46.7157 47.0913 46.3818C46.2065 45.9777 45.3138 45.5912 44.4136 45.2224C41.9726 44.204 40.1538 42.9569 38.9546 41.4865C37.758 40.016 37.1571 38.2371 37.1571 36.1551C37.1571 34.5224 37.4842 33.1211 38.1383 31.9485C38.7924 30.7758 39.6805 29.8106 40.808 29.0528C42.0005 28.2661 43.3243 27.6996 44.7168 27.3802C46.259 27.0166 47.8388 26.8372 49.4233 26.8458ZM9.2371 27.3457H34.6656V33.1052H25.5397V58.7543H18.3151V33.1052H9.2371V27.3457Z" fill="#7937D5"/>
</svg>
