<svg width="59" height="65" viewBox="0 0 59 65" fill="none" xmlns="http://www.w3.org/2000/svg">
<path d="M56.6045 50.1071L30.6259 64.7377V53.3424L46.8121 44.4777L56.6045 50.1071ZM58.3816 48.5048V17.9071L48.875 23.3699V43.0362L58.3816 48.5048ZM2.36689 50.1071L28.3455 64.7377V53.3424L12.1594 44.4777L2.36689 50.1071ZM0.589844 48.5048V17.9071L10.0962 23.3699V43.0362L0.589844 48.5048ZM1.70212 15.9275L28.3455 0.9198V11.9373L11.2766 21.2846L11.1465 21.3591L1.70212 15.9275ZM57.2696 15.9275L30.6259 0.9198V11.9373L47.6949 21.2849L47.8249 21.3594L57.2696 15.9275ZM28.3458 50.7504L12.3766 42.0093V24.6877L28.3452 33.8681L28.3458 50.7504ZM30.6259 50.7504L46.5943 42.0093V24.6877L30.6259 33.8681V50.7504ZM13.458 22.683L29.4886 13.9042L45.5198 22.683L29.4889 31.9006L13.458 22.683Z" fill="#7937D5"/>
</svg>
