<svg width="25" height="30" viewBox="0 0 25 30" fill="none" xmlns="http://www.w3.org/2000/svg">
<path d="M16.9719 0.207275C15.002 0.387922 12.4016 1.08347 9.20899 2.31974C8.25124 3.01402 7.24966 3.64576 6.2105 4.211L6.22279 4.40516C6.30144 4.40516 6.38992 4.35232 6.51773 4.28719C6.64799 4.2749 6.72541 4.32651 6.72541 4.45554L6.93186 4.34003L7.03509 4.32651L7.04738 4.41745C7.05967 4.50716 6.35183 5.06016 4.94966 6.05187L5.06395 6.23129L4.96072 6.24604L4.74321 6.16739C4.74321 6.23129 4.6535 6.27184 4.44828 6.28413L4.46057 6.38736L4.69283 6.64542C4.58637 6.64385 4.48122 6.62173 4.38315 6.58029C3.93214 6.61839 3.48114 6.95265 3.04366 7.57078L3.15917 7.75142C3.54504 7.40365 3.76379 7.223 3.82769 7.223L3.85472 7.50565C3.79082 7.50565 3.6876 7.55726 3.55979 7.62116L3.80434 7.98368C4.25286 7.4901 4.76777 7.06122 5.33431 6.70933C5.61695 6.78675 5.7595 6.86294 5.7595 6.96616L5.96595 6.95388C7.47134 5.83436 8.96444 5.03435 10.444 4.53296L10.4588 4.72713C10.1884 5.13881 9.99548 5.3428 9.89225 5.35509C9.90454 5.49764 9.95616 5.61316 10.0336 5.7299C10.0594 5.98797 9.38964 7.67523 8.02434 10.8163C4.90911 18.1036 2.30878 23.4824 0.209839 26.9835C0.209839 27.0474 0.260223 27.1507 0.325355 27.2662C0.840259 27.1384 1.17452 27.0241 1.31584 26.8951L1.43381 26.8803L1.4461 27.0745L1.64027 27.061L1.84426 26.9454C1.84426 27.0093 1.92168 27.0351 2.05071 27.0216L2.06546 27.217C2.07775 27.41 1.97329 27.7049 1.72875 28.1043C1.51 28.3501 1.29249 28.8502 1.04794 29.6097L1.06023 29.7006L1.25439 29.6883C2.09004 28.7494 2.73398 27.8204 3.17146 26.9184C5.63047 26.1983 7.49715 25.4904 8.79731 24.7949C10.0975 24.6794 11.1027 24.3463 11.7712 23.7798L11.7577 23.6766L11.2674 23.8179L11.1519 23.8302L11.1396 23.727C12.0932 23.5844 12.7617 23.3669 13.123 23.083C14.9897 21.6416 16.3918 20.6253 17.3442 20.0206C20.2936 17.8578 21.6834 15.7724 21.5163 13.7902C21.504 13.5837 20.8466 12.7727 19.5722 11.357C19.5464 11.0866 19.9962 10.6995 20.897 10.1846L23.4604 7.93084C24.0257 7.1972 24.3747 6.01378 24.4902 4.37935L24.4521 3.99225C24.3489 2.84693 23.5231 1.91912 21.9526 1.21005C21.0272 0.579629 19.3658 0.245371 16.9719 0.207275ZM20.0748 1.48163C21.9796 1.55905 22.959 1.89331 23.0106 2.48564L22.9332 2.6798L20.0748 1.48163ZM18.2536 3.10008C19.5599 3.08042 20.2407 3.42819 20.3083 4.16061L20.5 4.14586L20.4619 3.65677L20.6684 3.64448C21.1698 3.91483 21.4389 4.24909 21.4647 4.64725C21.4905 4.91761 21.3492 5.25432 21.0285 5.65371C20.8994 5.666 20.822 5.57506 20.8097 5.38213L20.6033 5.39687L20.5529 5.97445C19.6902 7.26233 19.0721 7.91855 18.685 7.95788C18.3372 8.43346 18.1172 8.67924 18.0275 8.69152C17.7571 9.01349 17.0247 9.56649 15.8155 10.3382C15.4161 10.3776 13.9341 10.9441 11.3718 12.0636C11.2441 12.0031 11.1015 11.9809 10.9614 11.9997L10.9466 11.819C10.9221 11.4455 11.0781 10.9822 11.4505 10.4157C11.6447 9.35881 11.8622 8.7542 12.1067 8.61287L14.2425 3.81284C14.2179 3.51667 14.6689 3.28441 15.6078 3.1308L15.9175 3.10377L15.9421 3.37535C16.5119 3.28545 17.083 3.20351 17.6551 3.12957C17.8677 3.11237 18.0668 3.10254 18.2536 3.10008ZM22.701 3.57935H22.7341C22.905 3.59409 23.0881 3.90254 23.2822 4.49364L23.2945 4.67429C23.1901 4.68658 22.9996 4.3769 22.7157 3.75999L22.701 3.57935ZM10.6136 6.63068H10.7021L10.7291 6.91332C10.6382 6.92561 10.5116 7.05587 10.3568 7.32623L10.342 7.13452C10.5227 6.91578 10.6124 6.74619 10.6124 6.63068H10.6136ZM4.48637 6.78675L4.49866 6.87523C4.43353 6.87523 4.33153 6.92807 4.20373 6.99197L4.09927 7.00426L4.08698 6.82484L4.48637 6.78675ZM9.75216 8.63745L9.79026 9.02455L9.68703 9.03684L9.64894 8.6522L9.75216 8.63745ZM9.50638 9.33423C9.48181 9.6562 9.40316 9.8221 9.23603 9.83562L9.1328 9.84791C9.24832 9.62917 9.31345 9.47556 9.30116 9.36004L9.50638 9.33423ZM9.08242 10.337L9.09471 10.4279L8.91406 10.7352L8.7199 10.7499L8.70761 10.659C8.90054 10.6467 8.99148 10.5447 8.97796 10.3518L9.08242 10.337ZM8.64248 11.2402L8.59332 11.7146L8.48886 11.7269L8.452 11.2513L8.64248 11.2402ZM19.0843 11.5843L19.5083 11.8449C19.5206 11.9727 19.4567 12.0501 19.3289 12.0624C19.1482 11.9469 19.0069 11.8952 18.9037 11.8952L18.8779 11.6126L19.0843 11.5843ZM10.9085 12.6793L10.9233 12.8599L10.5227 12.9005L10.5104 12.7186L10.9085 12.6793ZM17.4991 13.349C17.7817 13.478 17.9255 13.6071 17.939 13.7091L17.9513 13.8012C17.681 13.8258 17.4352 13.6845 17.2041 13.376L17.4991 13.349ZM20.6942 13.6587C20.9129 13.7496 21.0149 13.8406 21.0285 13.9303L21.0924 14.6885C21.0026 14.895 20.9129 14.9982 20.8097 14.9982L20.6942 13.6587ZM15.539 13.7386C16.5713 13.7214 17.3602 13.9647 17.9009 14.482L17.9378 14.8691C17.4757 16.2086 16.9608 16.9816 16.4078 17.2262L13.8321 19.2735C11.915 20.5343 10.8827 21.1635 10.7291 21.1758C7.6778 22.8631 5.77425 23.7258 5.03937 23.7897L4.92263 23.8019C5.02586 23.4419 6.37886 20.6621 9.005 15.4357C10.1638 15.3324 11.9912 14.7905 14.476 13.8135L15.0806 13.7619C15.2379 13.7496 15.3915 13.7423 15.539 13.7386ZM11.7847 14.3407L11.797 14.4317L11.3866 14.4698L11.3718 14.3788L11.7847 14.3407ZM5.36257 20.5712C5.23354 21.2286 5.09099 21.5641 4.94966 21.5777L4.93738 21.4855C4.91157 21.1512 5.05289 20.8551 5.36257 20.5712ZM14.0889 20.9841L14.1012 21.1647C14.1135 21.2422 13.8186 21.4855 13.2397 21.9107C11.5267 22.7476 10.5239 23.3264 10.2265 23.6225C8.37335 24.2652 7.45906 24.6658 7.47134 24.8195C5.82463 25.4769 4.74321 25.9537 4.22953 26.2499C4.11279 26.2622 3.93337 26.2118 3.70111 26.1086C3.67531 25.7743 3.8154 25.5015 4.14966 25.2828C4.4323 25.2582 4.71863 25.2963 4.97547 25.413C5.28392 25.2582 5.81111 25.0763 6.5718 24.8969L6.55705 24.7052L5.95244 24.7543C6.02986 24.6523 6.60989 24.382 7.71712 23.931L8.02557 23.9064L8.03786 23.9961C7.52296 24.0354 7.2268 24.2013 7.16166 24.4717C7.17395 24.5872 7.24031 24.6523 7.36812 24.64C7.7417 24.382 7.93464 24.2419 7.93464 24.2026C8.6818 24.0612 10.7291 22.9798 14.0889 20.9841ZM4.76902 21.8726L4.78131 21.9611C4.7936 22.0901 4.72969 22.17 4.60066 22.1823L4.58837 22.0913C4.57608 21.9746 4.63998 21.8984 4.76902 21.8726ZM9.40193 23.0241C9.5113 23.0216 9.57274 23.0843 9.5838 23.185C9.33926 23.2108 8.88825 23.4038 8.20622 23.7897L8.10299 23.8019L8.0907 23.6102C8.56758 23.5788 9.01629 23.3733 9.35154 23.0327C9.36875 23.029 9.38595 23.0253 9.4007 23.0241H9.40193ZM4.89928 24.5516L4.91157 24.6523C4.83292 24.6523 4.74198 24.7052 4.61295 24.7691L4.42124 24.7814C4.40895 24.6917 4.46057 24.6142 4.5896 24.5749L4.89928 24.5516ZM2.54227 25.7227L2.75978 25.8112C2.68236 26.39 2.51646 26.6874 2.21907 26.7132C2.02276 26.6189 1.80621 26.5746 1.58865 26.5841L1.56285 26.3015C1.55056 26.1848 1.61569 26.1209 1.75701 26.0828C1.88604 26.0705 1.96223 26.1577 1.97575 26.3507C2.3223 25.9267 2.51769 25.7227 2.54227 25.7227Z" fill="#381F5B"/>
</svg>
