<svg width="21" height="30" viewBox="0 0 21 30" fill="none" xmlns="http://www.w3.org/2000/svg">
<path d="M14.9724 11.3771H9.46678V0.599854H14.9724C17.9436 0.599854 20.3604 3.01665 20.3604 5.98785C20.3604 8.95905 17.9436 11.3771 14.9724 11.3771ZM11.232 9.61185H14.9724C16.9704 9.61185 18.5952 7.98585 18.5952 5.98905C18.5952 3.99225 16.9692 2.36625 14.9724 2.36625H11.232V9.61185ZM11.232 11.3771H5.72758C2.75638 11.3771 0.339579 8.96025 0.339579 5.98905C0.339579 3.01785 2.75638 0.599854 5.72758 0.599854H11.2332V11.3771H11.232ZM5.72758 2.36505C3.72958 2.36505 2.10478 3.99105 2.10478 5.98785C2.10478 7.98465 3.72958 9.61185 5.72758 9.61185H9.46798V2.36505H5.72758ZM11.232 20.3879H5.72758C2.75638 20.3879 0.339579 17.9711 0.339579 14.9999C0.339579 12.0287 2.75638 9.61185 5.72758 9.61185H11.2332V20.3879H11.232ZM5.72758 11.3771C3.72958 11.3771 2.10478 13.0031 2.10478 14.9999C2.10478 16.9967 3.73078 18.6227 5.72758 18.6227H9.46798V11.3771H5.72758ZM5.75638 29.3999C2.76958 29.3999 0.338379 26.9831 0.338379 24.0119C0.338379 21.0407 2.75518 18.6239 5.72638 18.6239H11.232V23.9531C11.232 26.9567 8.77558 29.3999 5.75638 29.3999ZM5.72758 20.3879C4.76714 20.3891 3.84641 20.7712 3.16727 21.4503C2.48814 22.1295 2.10605 23.0502 2.10478 24.0107C2.10478 26.0087 3.74278 27.6335 5.75758 27.6335C7.80358 27.6335 9.46918 25.9823 9.46918 23.9519V20.3879H5.72758ZM14.9724 20.3879H14.8548C11.8836 20.3879 9.46678 17.9711 9.46678 14.9999C9.46678 12.0287 11.8836 9.61185 14.8548 9.61185H14.9724C17.9436 9.61185 20.3604 12.0287 20.3604 14.9999C20.3604 17.9711 17.9436 20.3879 14.9724 20.3879ZM14.856 11.3771C12.858 11.3771 11.2332 13.0031 11.2332 14.9999C11.2332 16.9967 12.8592 18.6227 14.856 18.6227H14.9736C16.9716 18.6227 18.5964 16.9967 18.5964 14.9999C18.5964 13.0031 16.9692 11.3771 14.9724 11.3771H14.856Z" fill="#381F5B"/>
</svg>
