<svg width="31" height="31" viewBox="0 0 31 31" fill="none" xmlns="http://www.w3.org/2000/svg">
<path d="M0.950043 0.903809H30.4448V30.3985H0.950043V0.903809ZM28.0287 23.364C27.8136 22.0183 26.9373 20.8877 24.3381 19.8333C23.4336 19.4093 22.4283 19.1143 22.1297 18.4323C22.0179 18.0267 22.0007 17.8055 22.0732 17.5659C22.2575 16.772 23.1977 16.5336 23.935 16.7548C24.4143 16.9022 24.8567 17.2709 25.1345 17.8608C26.4052 17.03 26.4052 17.03 27.2913 16.4782C26.9595 15.9621 26.7948 15.7397 26.5711 15.5197C25.7969 14.6533 24.7658 14.2108 23.0883 14.2489L22.2219 14.3583C21.3911 14.5611 20.5997 15.0035 20.1204 15.5934C18.7194 17.18 19.1237 19.9451 20.8197 21.088C22.4972 22.3416 24.9501 22.6168 25.2635 23.7979C25.5585 25.2357 24.1943 25.6966 22.8474 25.5307C21.8507 25.3095 21.2989 24.8105 20.6906 23.8888L18.4416 25.1804C18.6997 25.7703 18.9947 26.0272 19.4371 26.5433C21.5755 28.7014 26.9214 28.5907 27.8812 25.3095C27.9168 25.1989 28.1761 24.4431 27.9721 23.2817L28.0287 23.364ZM16.989 14.4603H14.2264C14.2264 16.842 14.2153 19.209 14.2153 21.5944C14.2153 23.1084 14.2927 24.4984 14.0457 24.926C13.6401 25.7728 12.5955 25.6646 12.1212 25.5159C11.6345 25.275 11.3875 24.9432 11.1011 24.4652C11.0237 24.3361 10.966 24.2243 10.9451 24.2243L8.70224 25.6069C9.07707 26.3811 9.62395 27.0472 10.3294 27.4712C11.3801 28.0979 12.7922 28.3007 14.2706 27.9689C15.2329 27.6912 16.0624 27.1197 16.4962 26.2349C17.123 25.0919 16.9903 23.6909 16.9841 22.1228C16.9989 19.5985 16.9841 17.0731 16.9841 14.5291L16.989 14.4603Z" fill="#381F5B"/>
</svg>
