<svg width="27" height="30" viewBox="0 0 27 30" fill="none" xmlns="http://www.w3.org/2000/svg">
<path d="M13.6489 29.7007C13.2544 29.7007 12.8611 29.5974 12.5158 29.3971L8.90781 27.2626C8.36956 26.9615 8.63254 26.8546 8.8095 26.7919C9.5284 26.5424 9.67341 26.4847 10.4415 26.0496C10.5213 26.0042 10.627 26.0214 10.7094 26.0705L13.4817 27.716C13.5825 27.7713 13.7238 27.7713 13.816 27.716L24.6241 21.4782C24.7248 21.4204 24.7887 21.3049 24.7887 21.1857V8.71248C24.7887 8.59082 24.7236 8.47653 24.6204 8.41509L13.8172 2.18216C13.7177 2.12441 13.585 2.12441 13.4842 2.18216L2.68349 8.41632C2.57903 8.47653 2.51267 8.59451 2.51267 8.71248V21.1857C2.51267 21.3049 2.57903 21.418 2.68349 21.4745L5.64388 23.1851C7.25004 23.9888 8.23438 23.0426 8.23438 22.0914V9.7767C8.23438 9.60219 8.37447 9.46579 8.54897 9.46579H9.91919C10.09 9.46579 10.2326 9.60342 10.2326 9.7767V22.0914C10.2326 24.2358 9.06511 25.4647 7.03253 25.4647C6.40825 25.4647 5.91547 25.4647 4.5428 24.7876L1.70652 23.1568C1.00606 22.7525 0.573486 21.9955 0.573486 21.1857V8.71248C0.573486 7.90264 1.00728 7.14564 1.70652 6.74257L12.5146 0.497356C13.1991 0.110256 14.1072 0.110256 14.7856 0.497356L25.5924 6.74257C26.2929 7.14687 26.7279 7.90264 26.7279 8.71248V21.1857C26.7279 21.9955 26.2929 22.7501 25.5924 23.1568L14.7856 29.3971C14.4415 29.5974 14.0495 29.7007 13.6489 29.7007ZM22.3752 17.4032C22.3752 15.0683 20.7973 14.4465 17.4756 14.0078C14.1195 13.5641 13.7779 13.3343 13.7779 12.5491C13.7779 11.9002 14.0667 11.0338 16.5527 11.0338C18.7733 11.0338 19.5918 11.5119 19.9285 13.0087C19.958 13.15 20.087 13.2532 20.232 13.2532H21.6342C21.7214 13.2532 21.8038 13.2151 21.8628 13.1537C21.9217 13.0873 21.9537 13.0025 21.9451 12.9128C21.7276 10.3346 20.0145 9.13276 16.5527 9.13276C13.4707 9.13276 11.6323 10.4329 11.6323 12.6142C11.6323 14.9798 13.4608 15.6336 16.4188 15.9261C19.958 16.2726 20.232 16.79 20.232 17.4855C20.232 18.6935 19.2624 19.2084 16.9853 19.2084C14.1257 19.2084 13.4965 18.4907 13.2851 17.0677C13.2605 16.9153 13.1303 16.8035 12.9742 16.8035H11.577C11.4037 16.8035 11.2648 16.9411 11.2648 17.1144C11.2648 18.9356 12.2553 21.1058 16.9853 21.1058C20.4114 21.1071 22.3752 19.759 22.3752 17.4032Z" fill="#381F5B"/>
</svg>
