<svg width="28" height="30" viewBox="0 0 28 30" fill="none" xmlns="http://www.w3.org/2000/svg">
<path d="M26.4843 22.9394L14.4782 29.701V24.4346L21.9587 20.3377L26.4843 22.9394ZM27.3056 22.1989V8.05803L22.9121 10.5827V19.6715L27.3056 22.1989ZM1.41819 22.9394L13.4243 29.701V24.4346L5.94382 20.3377L1.41819 22.9394ZM0.596924 22.1989V8.05803L4.99032 10.5827V19.6715L0.596924 22.1989ZM1.11097 7.14312L13.4243 0.207275V5.29905L5.53583 9.61897L5.47574 9.65338L1.11097 7.14312ZM26.7917 7.14312L14.4782 0.207275V5.29905L22.3667 9.61909L22.4268 9.6535L26.7917 7.14312ZM13.4244 23.2367L6.04422 19.1969V11.1917L13.4242 15.4344L13.4244 23.2367ZM14.4782 23.2367L21.8581 19.1969V11.1917L14.4782 15.4344V23.2367ZM6.54401 10.2652L13.9526 6.20806L21.3615 10.2652L13.9527 14.5252L6.54401 10.2652Z" fill="#381F5B"/>
</svg>
