<svg width="24" height="24" viewBox="0 0 24 24" fill="none" xmlns="http://www.w3.org/2000/svg">
<path d="M3.31604 20.334C5.61804 22.736 8.55404 24 12.012 24C16 24 19.751 22.05 21.99 18.837C23.343 16.887 24 14.679 24 12.082C24 11.598 23.968 11.076 23.937 10.553H10.595V15.163H17.282C16.127 17.175 14.188 18.283 12.012 18.283C8.78304 18.283 5.88704 15.459 5.88704 11.786C5.88704 8.471 8.58604 5.717 12.012 5.717C13.856 5.717 15.367 6.466 16.823 7.956H23.343C21.468 3.019 17.084 0 12.083 0C8.76004 0 5.86304 1.17 3.55304 3.409C1.25004 5.647 4.27061e-05 8.572 4.27061e-05 11.754C-0.00795729 15.171 1.10804 18.025 3.31604 20.334Z" fill="#7937D5"/>
</svg>
