<svg width="246" height="294" viewBox="0 0 246 294" fill="none" xmlns="http://www.w3.org/2000/svg">
<g clip-path="url(#clip0_10_123)">
<path d="M244.856 155.86L184.132 145.153L205.092 26.2871L265.815 36.9943C298.586 42.7726 320.541 74.1286 314.763 106.899C308.985 139.67 277.626 161.639 244.856 155.86ZM207.034 129.117L248.289 136.391C270.325 140.277 291.408 125.503 295.291 103.479C299.175 81.456 284.403 60.36 262.38 56.4766L221.125 49.2024L207.034 129.117ZM203.601 148.586L142.891 137.881C110.121 132.103 88.165 100.747 93.9433 67.9764C99.7216 35.2058 131.08 13.2369 163.85 19.0152L224.574 29.7224L203.615 148.588L203.601 148.586ZM160.418 38.4843C138.381 34.5986 117.298 49.3725 113.415 71.396C109.531 93.4195 124.287 114.526 146.324 118.412L187.578 125.686L201.672 45.7586L160.418 38.4843ZM186.077 247.97L125.367 237.265C92.5967 231.486 70.641 200.131 76.4193 167.36C82.1976 134.589 113.554 112.634 146.324 118.412L207.048 129.119L186.091 247.972L186.077 247.97ZM142.891 137.881C120.854 133.996 99.7717 148.769 95.8884 170.793C92.005 192.816 106.777 213.912 128.8 217.796L170.054 225.07L184.146 145.155L142.891 137.881ZM108.158 336.718C75.2159 330.909 53.1014 299.525 58.8797 266.755C64.658 233.984 96.014 212.028 128.785 217.807L189.508 228.514L179.144 287.292C173.302 320.42 141.458 342.589 108.158 336.718ZM125.367 237.265C114.772 235.411 103.873 237.835 95.0623 244.004C86.2511 250.174 80.2462 259.586 78.3644 270.177C74.4787 292.213 89.385 313.319 111.607 317.238C134.173 321.217 155.755 306.244 159.704 283.85L166.635 244.541L125.367 237.265ZM227.332 255.244L226.035 255.015C193.264 249.237 171.308 217.881 177.087 185.11C182.865 152.34 214.221 130.384 246.992 136.162L248.289 136.391C281.059 142.17 303.015 173.525 297.237 206.296C291.458 239.067 260.102 261.022 227.332 255.244ZM243.572 155.634C221.535 151.748 200.452 166.522 196.569 188.546C192.686 210.569 207.457 231.665 229.481 235.548L230.778 235.777C252.815 239.663 273.897 224.889 277.781 202.865C281.664 180.842 266.879 159.744 244.856 155.86L243.572 155.634Z" fill="#381F5B"/>
</g>
<defs>
<clipPath id="clip0_10_123">
<rect width="322.547" height="322.547" fill="white" transform="translate(56.0096) rotate(10)"/>
</clipPath>
</defs>
</svg>
