<svg width="326" height="291" viewBox="0 0 326 291" fill="none" xmlns="http://www.w3.org/2000/svg">
<g clip-path="url(#clip0_4_648)">
<path d="M223.863 102.235C221.161 102.241 218.461 102.31 215.764 102.442C215.601 100.648 215.403 98.8545 215.17 97.0627C211.439 68.2581 200.36 47.8321 185.56 44.9485C171.384 42.1725 154.457 55.9806 140.777 79.7705C139.434 82.1155 138.148 84.4974 136.919 86.9161C135.281 86.1543 133.621 85.4286 131.938 84.7389C105.164 73.5565 81.9774 72.9472 72.1124 84.3502C62.6554 95.2795 66.1572 116.86 79.9143 140.642C81.2804 142.992 82.7042 145.31 84.1857 147.595C81.6362 149.369 79.1387 151.216 76.6964 153.135C55.5885 169.79 44.773 188.231 49.471 201.874C54.3252 215.972 75.6634 224.436 103.638 224.391C105.905 224.382 108.175 224.318 110.446 224.199C110.696 227.106 111.034 230.016 111.459 232.93C115.359 259.614 125.895 278.233 140.037 280.989C154.644 283.834 172.591 269.563 186.506 245.259C187.607 243.336 188.681 241.335 189.728 239.258C192.383 240.498 195.075 241.661 197.805 242.748C222.82 252.739 244.181 252.898 253.603 242.007C263.345 230.752 259.944 208.021 245.854 183.793C244.776 181.943 243.624 180.073 242.399 178.182C243.689 177.262 244.945 176.338 246.166 175.41C269.194 157.819 281.324 138.022 276.41 123.749C271.68 110.042 251.283 102.253 223.863 102.235ZM149.678 84.9023C161.396 64.5219 175.068 53.3628 183.626 55.0272C192.736 56.8032 201.788 73.4954 205.011 98.3662C205.217 99.9875 205.396 101.613 205.548 103.242C194.769 104.41 184.08 106.296 173.552 108.886C164.807 102.479 155.639 96.6693 146.111 91.498C147.24 89.2689 148.426 87.0715 149.669 84.9056L149.678 84.9023ZM120.489 190.461C123.909 193.726 127.404 196.91 130.975 200.013C134.615 203.18 138.331 206.257 142.122 209.241C134.834 210.897 127.466 212.175 120.047 213.072C119.818 205.896 119.966 198.309 120.489 190.461ZM112.622 167.613C107.476 161.881 102.802 156.108 98.6358 150.414C104.613 146.733 111.107 143.169 117.993 139.794C116.877 144.387 115.872 149.004 114.978 153.645C114.083 158.286 113.293 162.943 112.608 167.618L112.622 167.613ZM121.71 177.265C122.552 170.005 123.666 162.786 125.051 155.607C126.434 148.433 128.086 141.319 130.008 134.266C136.583 131.431 143.411 128.778 150.403 126.37C157.395 123.963 164.452 121.835 171.376 120.027C177.187 124.403 182.84 128.979 188.334 133.754C193.827 138.529 199.182 143.489 204.398 148.634C203.513 155.934 202.374 163.19 200.979 170.403C199.603 177.576 197.999 184.692 196.168 191.753C189.594 194.545 182.71 197.207 175.619 199.648C168.528 202.09 161.61 204.223 154.848 206.071C148.957 201.686 143.236 197.083 137.687 192.26C132.138 187.437 126.807 182.441 121.695 177.27L121.71 177.265ZM211.043 172.369C211.963 167.618 212.773 162.845 213.474 158.053C218.606 163.594 223.449 169.396 227.984 175.436C221.536 179.417 214.883 183.058 208.054 186.343C209.144 181.706 210.14 177.048 211.043 172.369ZM205.634 135.591C202.169 132.325 198.636 129.135 195.036 126.02C191.508 122.941 187.903 119.941 184.222 117.021C191.776 115.446 199.14 114.274 206.163 113.522C206.356 120.883 206.18 128.248 205.634 135.591ZM141.699 100.785C148.196 104.318 154.511 108.176 160.619 112.346C151.537 114.997 142.596 118.075 133.794 121.582C136.196 114.229 138.847 107.262 141.699 100.785ZM79.8839 91.0712C85.9593 84.0507 104.915 84.5674 128.026 94.2031C129.503 94.821 131.005 95.483 132.516 96.1844C128.156 106.137 124.46 116.368 121.454 126.809C111.583 131.235 102.011 136.297 92.7968 141.965C91.4213 139.844 90.0971 137.687 88.8243 135.496C77.0203 115.113 74.1791 97.6626 79.8839 91.0712ZM109.814 213.946C107.737 214.059 105.668 214.117 103.608 214.121C91.2428 214.148 80.4049 212.359 72.2806 209.144C65.0054 206.261 60.5039 202.433 59.1626 198.537C56.3122 190.259 64.9957 175.456 83.0757 161.219C85.3476 159.432 87.6683 157.714 90.0375 156.067C96.4656 164.822 103.465 173.144 110.989 180.977C109.876 191.929 109.483 202.943 109.814 213.946ZM177.6 240.14C171.449 250.888 164.51 259.395 157.683 264.829C151.547 269.707 146.007 271.694 141.976 270.909C133.394 269.237 124.915 254.288 121.599 231.464C121.213 228.776 120.896 226.065 120.649 223.33C131.479 222.03 142.207 219.995 152.76 217.239C161.631 223.64 170.91 229.454 180.54 234.643C179.608 236.513 178.625 238.343 177.6 240.14ZM184.892 225.35C178.586 221.963 172.107 218.044 165.6 213.674C170.004 212.348 174.459 210.91 178.963 209.359C183.586 207.767 188.128 206.092 192.568 204.335C190.368 211.466 187.806 218.48 184.892 225.35ZM248.414 218.596C249.575 226.361 248.533 232.166 245.843 235.272C240.119 241.885 222.968 241.757 201.58 233.21C199.129 232.235 196.637 231.141 194.083 229.974C198.33 219.974 201.9 209.699 204.768 199.22C214.806 194.784 224.527 189.661 233.861 183.888C234.969 185.601 236.01 187.294 236.985 188.968C243.215 199.673 247.119 209.952 248.414 218.596ZM239.932 167.24C238.835 168.077 237.695 168.914 236.533 169.748C229.967 160.988 222.812 152.685 215.12 144.895C216.261 134.203 216.684 123.447 216.387 112.698C218.941 112.575 221.44 112.508 223.869 112.512C247.363 112.524 263.867 118.835 266.704 127.075C269.732 135.868 259.824 152.045 239.932 167.24Z" fill="#381F5B"/>
<path d="M169.926 183.116C173.954 181.744 177.484 179.207 180.07 175.827C182.655 172.447 184.179 168.376 184.45 164.13C184.72 159.883 183.724 155.652 181.587 151.971C179.451 148.291 176.271 145.328 172.449 143.456C168.628 141.584 164.337 140.889 160.12 141.457C155.903 142.026 151.949 143.833 148.76 146.65C145.57 149.467 143.289 153.167 142.204 157.282C141.119 161.397 141.279 165.741 142.664 169.764C143.576 172.432 145.006 174.893 146.87 177.008C148.734 179.123 150.996 180.85 153.528 182.09C156.06 183.33 158.812 184.059 161.625 184.235C164.439 184.411 167.26 184.031 169.926 183.116Z" fill="#381F5B"/>
</g>
<defs>
<clipPath id="clip0_4_648">
<rect width="256" height="256" fill="white" transform="translate(0.300873 83.6464) rotate(-19)"/>
</clipPath>
</defs>
</svg>
