<svg width="322" height="322" viewBox="0 0 322 322" fill="none" xmlns="http://www.w3.org/2000/svg">
<g clip-path="url(#clip0_4_646)">
<path d="M44.425 0.316528L0.462677 277.884L278.03 321.846L321.992 44.2789L44.425 0.316528ZM158.972 239.478C154.693 266.498 136.647 277.142 113.543 273.482C92.6758 270.177 82.2746 257.454 78.1941 243.438L101.469 233.946C104.413 241.862 106.55 248.501 115.491 249.917C122.925 251.095 129.565 248.71 131.631 235.668L145.45 148.421L172.711 152.738L158.972 239.478ZM214.259 288.799C190.04 284.963 176.121 271.555 170.872 255.253L194.092 246.311C198.221 256.326 204.538 263.563 217.394 265.6C228.199 267.311 235.233 263.522 236.413 256.069C237.829 247.128 231.869 242.939 220.772 235.808L214.698 231.975C197.143 220.989 186.259 208.951 189.624 187.706C192.722 168.146 209.885 156.219 233.175 159.908C249.761 162.535 260.858 169.577 267.049 186.028L244.631 195.885C241.426 187.165 237.104 183.261 229.632 182.077C221.992 180.867 216.38 184.945 215.381 191.252C214.142 199.077 218.485 203.011 228.895 209.626L234.97 213.453C255.639 226.469 266.587 238.149 263.137 259.933C259.424 283.415 239.042 292.724 214.259 288.799Z" fill="#381F5B"/>
</g>
<defs>
<clipPath id="clip0_4_646">
<rect x="44.425" y="0.316528" width="281.027" height="281.027" rx="50" transform="rotate(9 44.425 0.316528)" fill="white"/>
</clipPath>
</defs>
</svg>
