<svg width="211" height="290" viewBox="0 0 211 290" fill="none" xmlns="http://www.w3.org/2000/svg">
<g clip-path="url(#clip0_10_126)">
<path d="M87.4925 267.912C84.1996 268.492 80.7649 268.209 77.5875 267.046L44.3268 254.537C39.3905 252.816 41.4284 251.537 42.8134 250.753C48.4473 247.613 49.5728 246.917 55.344 242.155C55.9439 241.658 56.8514 241.646 57.6111 241.935L83.1761 251.59C84.0987 251.904 85.2784 251.696 85.9664 251.098L167.007 183.118C167.764 182.487 168.127 181.429 167.952 180.434L149.592 76.3111C149.413 75.2955 148.701 74.4373 147.749 74.0763L48.3927 37.9471C47.4767 37.6115 46.3688 37.8069 45.6126 38.4373L-35.3724 106.376C-36.1557 107.033 -36.536 108.115 -36.3623 109.1L-18.0027 213.223C-17.8272 214.218 -17.1069 215.064 -16.1517 215.382L11.0787 225.304C25.6695 229.649 32.4937 220.301 31.0936 212.361L12.9673 109.562C12.7104 108.105 13.6791 106.76 15.1358 106.503L26.5739 104.486C27.9999 104.235 29.3924 105.174 29.6475 106.621L47.7738 209.42C50.9302 227.321 42.9936 239.298 26.0261 242.29C20.8149 243.209 16.7012 243.934 4.24592 240.302L-21.8308 230.864C-28.2732 228.52 -32.9984 222.837 -34.1905 216.077L-52.5501 111.954C-53.7421 105.194 -51.2352 98.2362 -45.9914 93.8422L35.0388 25.8002C40.183 21.5613 47.764 20.2246 53.9964 22.4575L153.401 58.6839C159.844 61.0278 164.588 66.6964 165.78 73.4567L184.139 177.58C185.331 184.34 182.811 191.279 177.562 195.705L96.5348 263.705C93.9572 265.883 90.8367 267.322 87.4925 267.912ZM142.236 152.411C138.8 132.92 124.713 130.052 96.3384 131.279C67.6697 132.516 64.4796 131.1 63.3237 124.545C62.3687 119.129 63.5042 111.471 84.2569 107.812C102.794 104.543 110.33 107.329 115.344 119.328C115.798 120.465 117.027 121.137 118.237 120.923L129.942 118.859C130.671 118.731 131.302 118.292 131.704 117.692C132.098 117.051 132.24 116.296 132.037 115.56C126.426 94.358 110.357 86.8468 81.4587 91.9423C55.7306 96.4788 42.2977 110.038 45.5084 128.247C48.9904 147.994 65.2172 150.76 90.3397 148.848C120.394 146.531 123.443 150.447 124.467 156.253C126.245 166.337 118.909 172.063 99.9003 175.414C76.0289 179.623 69.7203 174.559 65.8612 162.991C65.4317 161.755 64.1797 161.013 62.8769 161.243L51.2131 163.299C49.7667 163.554 48.81 164.908 49.0651 166.354C51.7458 181.557 63.2085 198.215 102.693 191.253C131.295 186.221 145.704 172.077 142.236 152.411Z" fill="#381F5B"/>
</g>
<defs>
<clipPath id="clip0_10_126">
<rect width="250" height="250" fill="white" transform="translate(-79 43.4121) rotate(-10)"/>
</clipPath>
</defs>
</svg>
